# xmcd
#
# Track frame offsets:
#   150
#   11092
#   19752
#   32347
#   45617
#   61740
#   70822
#   85080
#   98175
#   106895
#   120292
#
# Disc length: 1739 seconds
#
# Revision: 0
# Processed by: cddbd v1.5.2PL0 Copyright (c) Steve Scherf et al.
# Submitted via: uFREEDB ActiveX Control 1.5
#
DISCID=7906c90b
DTITLE=Diversos - Grandes Sucessos - O Melhor do Forró
DYEAR=2000
DGENRE=Country
TTITLE0=Asa Branca
TTITLE1=Baião
TTITLE2=Respeita Januário
TTITLE3=Zé do Rock
TTITLE4=Abri a Porta
TTITLE5=Feira de Mangaio
TTITLE6=Isso aqui tá bom demais
TTITLE7=Eu só quero um xodó
TTITLE8=Qui nem jiló
TTITLE9=Xote das meninas
TTITLE10=Mulher rendeira
EXTD=
EXTT0=
EXTT1=
EXTT2=
EXTT3=
EXTT4=
EXTT5=
EXTT6=
EXTT7=
EXTT8=
EXTT9=
EXTT10=
PLAYORDER=
